<?xml version="1.0" encoding="UTF-8"?>
<svg xmlns="http://www.w3.org/2000/svg" xmlns:xlink="http://www.w3.org/1999/xlink" viewBox="0 0 50 50" width="50px" height="50px">
<g id="surface34546331">
<path style="fill-rule:nonzero;fill:rgb(0%,0%,0%);fill-opacity:0.1;stroke-width:10;stroke-linecap:butt;stroke-linejoin:round;stroke:rgb(100%,100%,100%);stroke-opacity:1;stroke-miterlimit:10;" d="M 165.117726 86.000001 C 165.117726 129.625662 129.625662 165.117726 86.000001 165.117726 C 42.374339 165.117726 6.882275 129.625662 6.882275 86.000001 C 6.882275 42.374339 42.374339 6.882275 86.000001 6.882275 C 129.625662 6.882275 165.117726 42.374339 165.117726 86.000001 Z M 110.073744 41.279432 C 110.073744 41.279432 100.46131 37.838294 91.431879 37.838294 C 74.5959 37.838294 68.794313 48.161707 68.794313 62.694114 L 68.794313 72.23545 L 58.485119 72.23545 L 58.485119 89.441138 L 68.794313 89.441138 L 68.794313 134.161707 L 89.441138 134.161707 L 89.441138 89.441138 L 106.646826 89.441138 L 110.073744 72.23545 L 89.441138 72.23545 L 89.441138 61.257937 C 89.441138 56.608135 92.100199 55.043982 98.769181 55.043982 L 110.073744 55.043982 Z M 110.073744 41.279432 " transform="matrix(0.274709,0,0,0.274709,1.375,1.375)"/>
<path style=" stroke:none;fill-rule:nonzero;fill:rgb(100%,100%,100%);fill-opacity:1;" d="M 25 3.265625 C 13.015625 3.265625 3.265625 13.015625 3.265625 25 C 3.265625 36.984375 13.015625 46.734375 25 46.734375 C 36.984375 46.734375 46.734375 36.984375 46.734375 25 C 46.734375 13.015625 36.984375 3.265625 25 3.265625 Z M 31.613281 16.496094 L 28.507812 16.496094 C 26.675781 16.496094 25.945312 16.925781 25.945312 18.203125 L 25.945312 21.21875 L 31.613281 21.21875 L 30.671875 25.945312 L 25.945312 25.945312 L 25.945312 38.230469 L 20.273438 38.230469 L 20.273438 25.945312 L 17.441406 25.945312 L 17.441406 21.21875 L 20.273438 21.21875 L 20.273438 18.597656 C 20.273438 14.605469 21.867188 11.769531 26.492188 11.769531 C 28.972656 11.769531 31.613281 12.714844 31.613281 12.714844 Z M 31.613281 16.496094 "/>
</g>
</svg>
